<?xml version="1.0" ?>
<!DOCTYPE svg  PUBLIC '-//W3C//DTD SVG 1.1//EN'  'http://www.w3.org/Graphics/SVG/1.1/DTD/svg11.dtd'>
<!-- Uploaded to: SVG Repo, www.svgrepo.com, Generator: SVG Repo Mixer Tools -->
<svg fill="#000000" width="800px" height="800px" viewBox="0 0 250 250" style="fill-rule:evenodd;clip-rule:evenodd;stroke-linecap:round;stroke-linejoin:round;stroke-miterlimit:1.5;" version="1.1" xml:space="preserve" xmlns="http://www.w3.org/2000/svg" xmlns:serif="http://www.serif.com/" xmlns:xlink="http://www.w3.org/1999/xlink">
<g transform="matrix(0.931946,0.931946,-0.931946,0.931946,152.322,-119.443)">
<path d="M124.892,119.869L124.892,264.494" style="fill:none;stroke:black;stroke-width:5.69px;"/>
</g>
<g transform="matrix(1.02591,1.02591,-1.02591,1.02591,124.681,-115.29)">
<path d="M123.997,95.268L122.435,100.031C88.965,104.082 70.618,87.987 72.677,46.015C72.914,41.186 76.059,42.051 77.511,43.841C78.614,45.2 80.419,47.02 81.981,48.5C83.866,50.286 86.922,52.408 89.682,51.56C92.83,50.594 105.225,51.389 109.544,52.122C102.316,65.649 105.515,80.601 117.544,96.621L123.997,95.268Z" style="fill:rgb(87,204,51);stroke:black;stroke-width:5.17px;"/>
<g transform="matrix(0.5,-0.866025,0.866025,0.5,-20.0131,153.516)">
<path d="M117.544,96.621C98.512,72.12 108.37,54.536 108.37,54.536C111.585,72.075 127.522,85.722 129.944,94.021L117.544,96.621Z" style="fill:rgb(114,214,83);stroke:black;stroke-width:5.17px;"/>
</g>
</g>
<g transform="matrix(1.02591,1.02591,-1.02591,1.02591,124.681,-115.29)">
<path d="M117.544,96.621C97.3,69.661 102.066,45.725 139.444,26.521C143.744,24.312 144.568,27.468 143.744,29.621C143.118,31.256 142.444,33.728 141.944,35.821C141.34,38.347 141.03,42.054 143.144,44.021C146.081,46.754 153.618,62.684 152.944,63.021L129.944,94.021L117.544,96.621Z" style="fill:rgb(226,104,14);stroke:black;stroke-width:5.17px;"/>
<path d="M117.544,96.621C98.512,72.12 108.37,54.536 108.37,54.536C111.585,72.075 127.522,85.722 129.944,94.021L117.544,96.621Z" style="fill:rgb(242,139,62);stroke:black;stroke-width:5.17px;"/>
</g>
<g transform="matrix(1.02591,1.02591,-1.02591,1.02591,124.681,-115.29)">
<path d="M79.977,84.836C88.092,97.762 102.611,102.43 122.435,100.031L128.018,97.499C114.791,128.511 91.679,136.352 56.36,113.584C52.296,110.964 54.618,108.673 56.894,108.31C58.623,108.034 61.101,107.381 63.164,106.768C65.653,106.029 69.019,104.443 69.665,101.629C70.393,98.459 77.121,88.334 79.977,84.836Z" style="fill:rgb(110,35,121);stroke:black;stroke-width:5.17px;"/>
<g transform="matrix(-0.5,-0.866025,0.866025,-0.5,103.113,247.606)">
<path d="M117.544,96.621C98.512,72.12 108.37,54.536 108.37,54.536C111.585,72.075 127.522,85.722 129.944,94.021L117.544,96.621Z" style="fill:rgb(150,46,165);stroke:black;stroke-width:5.17px;"/>
</g>
</g>
<g transform="matrix(1.02591,1.02591,-1.02591,1.02591,124.681,-115.29)">
<path d="M123.198,92.117L128.579,90.988C148.823,117.949 144.057,141.885 106.679,161.088C102.379,163.298 101.555,160.141 102.379,157.988C103.005,156.354 103.679,153.881 104.179,151.788C104.783,149.262 105.093,145.555 102.979,143.588C100.671,141.44 95.522,131.144 93.75,126.667C108.943,126.052 120.205,115.818 128.018,97.499L123.198,92.117Z" style="fill:rgb(230,26,26);stroke:black;stroke-width:5.17px;"/>
<g transform="matrix(-1,-1.22465e-16,1.22465e-16,-1,246.123,187.609)">
<path d="M117.544,96.621C98.512,72.12 108.37,54.536 108.37,54.536C111.585,72.075 127.522,85.722 129.944,94.021L117.544,96.621Z" style="fill:rgb(237,68,68);stroke:black;stroke-width:5.17px;"/>
</g>
</g>
<g transform="matrix(1.02591,1.02591,-1.02591,1.02591,124.681,-115.29)">
<path d="M123.198,92.117L123.688,87.579C157.158,83.528 175.504,99.623 173.446,141.595C173.209,146.424 170.064,145.558 168.611,143.769C167.509,142.409 165.704,140.59 164.142,139.11C162.257,137.324 159.201,135.202 156.441,136.049C153.293,137.015 140.898,136.22 136.579,135.488C143.807,121.96 140.608,107.008 128.579,90.988L123.198,92.117Z" style="fill:rgb(13,121,242);stroke:black;stroke-width:5.17px;"/>
<g transform="matrix(-0.5,0.866025,-0.866025,-0.5,266.136,34.0935)">
<path d="M117.544,96.621C98.512,72.12 108.37,54.536 108.37,54.536C111.585,72.075 127.522,85.722 129.944,94.021L117.544,96.621Z" style="fill:rgb(94,166,248);stroke:black;stroke-width:5.17px;"/>
</g>
</g>
<g transform="matrix(1.02591,1.02591,-1.02591,1.02591,124.681,-115.29)">
<path d="M121.584,93.995L118.105,90.11C131.332,59.098 154.444,51.257 189.763,74.026C193.827,76.645 191.505,78.937 189.229,79.3C187.5,79.575 185.022,80.228 182.959,80.841C180.47,81.581 177.104,83.166 176.458,85.98C175.73,89.151 169.002,99.275 166.146,102.773C158.031,89.847 143.512,85.179 123.688,87.579L121.584,93.995Z" style="fill:rgb(255,233,0);stroke:black;stroke-width:5.17px;"/>
<g transform="matrix(0.5,0.866025,-0.866025,0.5,143.009,-59.9965)">
<path d="M117.544,96.621C98.512,72.12 108.37,54.536 108.37,54.536C111.585,72.075 127.522,85.722 129.944,94.021L117.544,96.621Z" style="fill:rgb(251,237,95);stroke:black;stroke-width:5.17px;"/>
</g>
<g transform="matrix(0.538839,0.933297,-0.847401,0.489247,135.202,-66.5106)">
<ellipse cx="123.912" cy="93.196" rx="6.031" ry="6.643" style="fill:rgb(255,233,0);stroke:black;stroke-width:5.02px;"/>
</g>
</g>
</svg>